<svg width="29" height="28" viewBox="0 0 29 28" fill="none" xmlns="http://www.w3.org/2000/svg">
<path fill-rule="evenodd" clip-rule="evenodd" d="M20.9434 16.009C22.9046 16.009 24.5 17.5964 24.5 19.5473C24.5 21.4982 22.9046 23.0856 20.9434 23.0856C18.9811 23.0856 17.3845 21.4982 17.3845 19.5473C17.3845 17.5964 18.9811 16.009 20.9434 16.009ZM20.9434 17.7233C19.9263 17.7233 19.0988 18.5416 19.0988 19.5473C19.0988 20.5541 19.9263 21.3713 20.9434 21.3713C21.9594 21.3713 22.7857 20.5541 22.7857 19.5473C22.7857 18.5416 21.9594 17.7233 20.9434 17.7233ZM12.5918 18.7345C13.065 18.7345 13.449 19.1185 13.449 19.5916C13.449 20.0648 13.065 20.4488 12.5918 20.4488H5.39063C4.91749 20.4488 4.53349 20.0648 4.53349 19.5916C4.53349 19.1185 4.91749 18.7345 5.39063 18.7345H12.5918ZM8.05773 4.91406C10.02 4.91406 11.6155 6.50264 11.6155 8.45351C11.6155 10.4044 10.02 11.9907 8.05773 11.9907C6.09658 11.9907 4.5 10.4044 4.5 8.45351C4.5 6.50264 6.09658 4.91406 8.05773 4.91406ZM8.05773 6.62836C7.04173 6.62836 6.2143 7.44665 6.2143 8.45351C6.2143 9.45923 7.04173 10.2764 8.05773 10.2764C9.07488 10.2764 9.90117 9.45923 9.90117 8.45351C9.90117 7.44665 9.07488 6.62836 8.05773 6.62836ZM23.0042 7.65739C23.4774 7.65739 23.8614 8.04139 23.8614 8.51454C23.8614 8.98768 23.4774 9.37169 23.0042 9.37169H15.8042C15.331 9.37169 14.947 8.98768 14.947 8.51454C14.947 8.04139 15.331 7.65739 15.8042 7.65739H23.0042Z" fill="white"/>
</svg>
