<svg width="100" height="82" viewBox="0 0 100 82" fill="none" xmlns="http://www.w3.org/2000/svg">
<path d="M29.4966 48.3638L29.2892 49.1174L29.3061 49.2317L29.4966 48.3638Z" fill="#686B72" fill-opacity="0.1"/>
<path d="M20.945 0H0L20.1913 81.6079L20.2676 81.9297H20.2887L29.2899 49.1172L20.945 0Z" fill="#686B72" fill-opacity="0.1"/>
<path d="M70.3544 49.4093L59.3082 0H39.8917L29.4975 48.3635L29.5525 48.1603L29.4975 48.3635L29.307 49.2315L29.29 49.1172L20.2888 81.9297H39.4725L49.7312 34.6839L60.265 81.5994L60.3413 81.9297H79.4614L79.5588 81.5232L70.384 49.2442L70.3544 49.4093Z" fill="#686B72" fill-opacity="0.1"/>
<path d="M99.5968 0H78.7746L74.202 26.847L84.2829 62.3057L99.5968 0Z" fill="#686B72" fill-opacity="0.1"/>
</svg>
