<svg width="42" height="42" viewBox="0 0 42 42" fill="none" xmlns="http://www.w3.org/2000/svg">
<circle cx="21" cy="21" r="21" fill="#161616"/>
<path d="M16.6624 22.1375L16.6223 22.2832L16.6256 22.3053L16.6624 22.1375Z" fill="#686B72"/>
<path d="M15.008 12.7826H10.9565L14.8622 28.5681L14.8769 28.6303H14.881L16.6221 22.2834L15.008 12.7826Z" fill="#686B72"/>
<path d="M24.5652 22.3399L22.4285 12.7826H18.6728L16.6622 22.1376L16.6729 22.0983L16.6622 22.1376L16.6254 22.3055L16.6221 22.2834L14.881 28.6303H18.5917L20.576 19.4915L22.6136 28.5665L22.6284 28.6303H26.3268L26.3456 28.5517L24.5709 22.3079L24.5652 22.3399Z" fill="#686B72"/>
<path d="M30.2218 12.7826H26.1942L25.3097 17.9756L27.2596 24.8344L30.2218 12.7826Z" fill="#686B72"/>
</svg>
